<svg width="32" height="32" viewBox="0 0 32 32" fill="none" xmlns="http://www.w3.org/2000/svg">
<g clip-path="url(#clip0_5353_132520)">
<path d="M31.9989 15.998C31.9989 7.16255 24.8357 0 15.9994 0C7.16319 0 0 7.16255 0 15.998C0 23.983 5.85073 30.6015 13.4995 31.8017V20.6224H9.43717V15.998H13.4995V12.4735C13.4995 8.46395 15.8882 6.24923 19.5428 6.24923C21.2927 6.24923 23.1242 6.56169 23.1242 6.56169V10.4987H21.1068C19.1193 10.4987 18.4994 11.732 18.4994 12.9984V15.998H22.9367L22.2274 20.6224H18.4994V31.8017C26.1482 30.6015 31.9989 23.983 31.9989 15.998Z" fill="#F1ECF9"/>
</g>
<defs>
<clipPath id="clip0_5353_132520">
<rect width="31.9989" height="31.996" fill="white"/>
</clipPath>
</defs>
</svg>
