<svg width="33" height="32" viewBox="0 0 33 32" fill="none" xmlns="http://www.w3.org/2000/svg">
<path d="M25.966 1H8.02909C4.69795 1 1.99805 3.73962 1.99805 7.11975V24.8765C1.99805 28.2567 4.69795 30.9963 8.02909 30.9963H25.966C29.2971 30.9963 31.997 28.2567 31.997 24.8765V7.11975C31.997 3.73962 29.2971 1 25.966 1ZM16.9975 23.1643C13.0977 23.1643 9.93527 19.9554 9.93527 15.9981C9.93527 12.0409 13.0977 8.83201 16.9975 8.83201C20.8974 8.83201 24.0598 12.0409 24.0598 15.9981C24.0598 19.9554 20.8974 23.1643 16.9975 23.1643ZM26.1035 8.6481C25.2722 8.6481 24.5973 7.96319 24.5973 7.11975C24.5973 6.2763 25.2722 5.5914 26.1035 5.5914C26.9347 5.5914 27.6097 6.2763 27.6097 7.11975C27.6097 7.96319 26.9347 8.6481 26.1035 8.6481Z" fill="#F1ECF9"/>
</svg>
