<svg width="173" height="40" viewBox="0 0 173 40" fill="none" xmlns="http://www.w3.org/2000/svg">
<g clip-path="url(#clip0_5353_132705)">
<path d="M15.148 31.2222C13.1392 31.236 11.1484 30.8441 9.29681 30.0702C7.44518 29.2962 5.7713 28.1565 4.37688 26.7201C2.99072 25.285 1.89791 23.5966 1.15894 21.7483C0.375339 19.7902 -0.0180424 17.6996 0.000635209 15.5926C-0.0167743 13.5038 0.376692 11.4316 1.15894 9.49251C1.90178 7.65276 2.99432 5.97229 4.37688 4.54285C5.74536 3.13183 7.37888 2.00075 9.18516 1.21349C11.0633 0.397078 13.0942 -0.0151821 15.1443 0.00381692C16.9146 -0.0354564 18.6785 0.228592 20.3585 0.784368C21.955 1.39397 23.435 2.26971 24.7348 3.37387C24.9221 3.51162 25.0877 3.67617 25.2264 3.86218C25.3341 4.01603 25.4136 4.18761 25.4611 4.36898C25.5025 4.5673 25.5225 4.76944 25.5207 4.97197C25.5248 5.20579 25.4796 5.43788 25.3879 5.65326C25.2961 5.86863 25.1599 6.0625 24.9881 6.22233C24.6407 6.55742 24.1797 6.75138 23.6957 6.76613C23.1696 6.78831 22.6555 6.60659 22.2617 6.25932C21.3666 5.47254 20.3539 4.82859 19.2598 4.35049C17.9519 3.86222 16.5592 3.63714 15.1629 3.68831C13.6601 3.67912 12.1736 3.99865 10.809 4.62424C9.45323 5.24585 8.2334 6.12564 7.21864 7.21374C6.17565 8.30158 5.35144 9.57726 4.79029 10.9722C3.63642 13.9587 3.63642 17.2636 4.79029 20.2501C5.34236 21.6583 6.16169 22.9481 7.20375 24.0492C8.21769 25.1288 9.43831 25.9966 10.7941 26.6017C13.3729 27.736 16.2974 27.8171 18.9358 26.8274C20.1608 26.3534 21.3158 25.7176 22.3698 24.9371C22.7639 24.6247 23.2591 24.4656 23.7627 24.4894C24.204 24.5223 24.617 24.7175 24.921 25.0369C25.0845 25.219 25.2102 25.4313 25.2907 25.6618C25.3713 25.8923 25.4051 26.1363 25.3903 26.3798C25.3908 26.64 25.3441 26.8981 25.2525 27.1418C25.148 27.4057 24.9791 27.6396 24.7609 27.8225C23.4251 28.9371 21.8969 29.8019 20.2505 30.375C18.6096 30.9398 16.8847 31.2262 15.148 31.2222ZM25.3903 26.3872L21.4647 25.6066V18.6298H16.0493C15.5203 18.6463 15.0039 18.467 14.6005 18.1267C14.4131 17.9662 14.2626 17.7675 14.1595 17.5441C14.0564 17.3206 14.003 17.0777 14.003 16.8319C14.003 16.5861 14.0564 16.3432 14.1595 16.1198C14.2626 15.8963 14.4131 15.6976 14.6005 15.5372C15.0036 15.1958 15.5199 15.0152 16.0493 15.0304H23.3903C23.6582 15.0189 23.9255 15.0633 24.1751 15.1608C24.4246 15.2583 24.6508 15.4066 24.8391 15.5963C25.0266 15.7934 25.1721 16.026 25.2668 16.2803C25.3615 16.5346 25.4035 16.8053 25.3903 17.0761V26.3872Z" fill="#FEFEFE"/>
<path d="M36.5974 30.8291C35.5029 30.847 34.4309 30.5193 33.5359 29.8932C32.6245 29.2437 31.9065 28.3618 31.4577 27.3407C30.9423 26.168 30.6882 24.8985 30.7128 23.6192V2.33716C30.7013 2.07425 30.7434 1.81174 30.8368 1.56545C30.9301 1.31915 31.0727 1.09418 31.2559 0.90409C31.4392 0.713996 31.6592 0.562716 31.9029 0.459365C32.1466 0.356015 32.4088 0.302734 32.6737 0.302734C32.9387 0.302734 33.2009 0.356015 33.4446 0.459365C33.6882 0.562716 33.9083 0.713996 34.0915 0.90409C34.2748 1.09418 34.4173 1.31915 34.5107 1.56545C34.604 1.81174 34.6462 2.07425 34.6347 2.33716V23.6192C34.6019 24.4467 34.7922 25.2679 35.1859 25.9978C35.311 26.2682 35.5092 26.4989 35.7584 26.6641C36.0076 26.8293 36.298 26.9227 36.5974 26.9338H37.5807C37.8202 26.9259 38.0585 26.9706 38.2786 27.0646C38.4988 27.1586 38.6954 27.2996 38.8545 27.4776C39.1906 27.8665 39.3662 28.3674 39.3461 28.8796C39.3484 29.1568 39.2815 29.4302 39.1516 29.6755C39.0216 29.9207 38.8325 30.1303 38.6012 30.2853C38.0351 30.668 37.3597 30.8587 36.6757 30.8291H36.5974Z" fill="#FEFEFE"/>
<path d="M51.837 30.9848C49.8757 31.0254 47.9388 30.5479 46.2242 29.6012C44.6222 28.6993 43.2994 27.3791 42.3992 25.7836C41.449 24.0727 40.9686 22.1437 41.0062 20.1902C40.966 18.2235 41.4463 16.2807 42.3992 14.5562C43.3003 12.9614 44.6229 11.6413 46.2242 10.7385C47.9449 9.83162 49.863 9.35742 51.8109 9.35742C53.7588 9.35742 55.677 9.83162 57.3976 10.7385C58.9997 11.6402 60.3226 12.9606 61.2226 14.5562C62.1772 16.2801 62.6576 18.2233 62.6156 20.1902C62.6533 22.141 62.1811 24.0682 61.245 25.7836C60.3592 27.3786 59.0471 28.6997 57.4535 29.6012C55.7378 30.5486 53.7995 31.026 51.837 30.9848ZM51.837 27.4778C53.1039 27.5027 54.353 27.1788 55.446 26.5419C56.4897 25.9211 57.3394 25.0246 57.9004 23.9524C58.507 22.7848 58.8104 21.4853 58.7831 20.1717C58.8091 18.8524 58.5058 17.5472 57.9004 16.3725C57.3401 15.2999 56.4902 14.4032 55.446 13.783C54.3435 13.1693 53.1008 12.847 51.837 12.847C50.5732 12.847 49.3305 13.1693 48.228 13.783C47.1809 14.4056 46.3256 15.3012 45.7549 16.3725C45.1365 17.5431 44.8264 18.8501 44.8536 20.1717C44.825 21.4876 45.1352 22.789 45.7549 23.9524C46.3267 25.023 47.1817 25.9184 48.228 26.5419C49.321 27.1788 50.5701 27.5027 51.837 27.4778Z" fill="#FEFEFE"/>
<path d="M72.3531 30.8299C71.9374 30.8311 71.5319 30.7016 71.1948 30.46C70.8701 30.2357 70.624 29.9162 70.4909 29.5463L64.6695 12.241C64.4513 11.6029 64.4513 10.9111 64.6695 10.273C64.893 9.76615 65.3846 9.5109 66.1593 9.5109C66.6078 9.49531 67.047 9.64112 67.3958 9.92152C67.7854 10.2958 68.0637 10.7693 68.2003 11.2903L73.1464 26.646H71.7721L76.45 10.9906C76.5638 10.5779 76.7953 10.2066 77.1167 9.92152C77.4913 9.6547 77.9407 9.5112 78.4016 9.5112C78.8626 9.5112 79.312 9.6547 79.6866 9.92152C80.0158 10.1968 80.2437 10.5728 80.3346 10.9906L84.1336 25.7175H83.5451L88.1746 11.2903C88.552 10.1065 89.2373 9.51336 90.2305 9.5109C90.9754 9.5109 91.4596 9.76615 91.7203 10.273C91.981 10.7798 91.9699 11.4345 91.6831 12.241L85.8729 29.5463C85.7629 29.9178 85.5275 30.2405 85.2062 30.46C84.8653 30.708 84.4518 30.838 84.0293 30.8299C83.608 30.8298 83.1971 30.7006 82.8524 30.46C82.5149 30.2492 82.2651 29.9249 82.1484 29.5463L78.0888 14.6936H78.4836L74.2451 29.5463C74.1302 29.9216 73.8864 30.2449 73.5561 30.46C73.2052 30.7078 72.7836 30.8375 72.3531 30.8299Z" fill="#FEFEFE"/>
<path d="M125.793 39.9968C125.528 40.0045 125.264 39.9584 125.018 39.8613C124.771 39.7642 124.547 39.6182 124.36 39.4323C124.172 39.2463 124.025 39.0243 123.927 38.7798C123.829 38.5353 123.782 38.2735 123.789 38.0103V20.2537C123.783 18.3106 124.283 16.3989 125.241 14.7048C126.155 13.0965 127.483 11.7585 129.089 10.8279C130.321 10.1035 131.686 9.62908 133.105 9.43195C134.523 9.23483 135.966 9.31896 137.352 9.67948C138.737 10.04 140.037 10.6698 141.176 11.5323C142.315 12.3949 143.27 13.4732 143.986 14.7048C144.956 16.3937 145.451 18.31 145.42 20.2537C145.452 22.1724 145 24.0685 144.106 25.7694C143.268 27.3405 142.028 28.6648 140.512 29.6092C139.106 30.4538 137.512 30.9388 135.871 31.0208C134.23 31.1028 132.595 30.7792 131.111 30.079C129.835 29.4565 128.706 28.5742 127.796 27.4895V38.014C127.805 38.2754 127.76 38.5357 127.665 38.7797C127.571 39.0237 127.428 39.2464 127.245 39.4346C127.056 39.6241 126.829 39.772 126.579 39.8689C126.329 39.9657 126.061 40.0093 125.793 39.9968ZM134.582 27.5265C135.839 27.5478 137.076 27.2156 138.15 26.5684C139.195 25.9368 140.054 25.0439 140.642 23.9789C141.249 22.8237 141.565 21.54 141.565 20.2371C141.565 18.9341 141.249 17.6505 140.642 16.4952C140.058 15.4203 139.199 14.5179 138.15 13.8798C137.069 13.2547 135.841 12.9253 134.59 12.9253C133.339 12.9253 132.11 13.2547 131.029 13.8798C129.979 14.5044 129.118 15.3991 128.537 16.4693C127.922 17.6264 127.612 18.9195 127.636 20.2278C127.615 21.5252 127.925 22.8068 128.537 23.953C129.119 25.0227 129.98 25.9172 131.029 26.5425C132.098 27.1941 133.329 27.535 134.582 27.5265Z" fill="#FEFEFE"/>
<path d="M153.374 39.9969C153.109 40.004 152.846 39.9575 152.6 39.8602C152.354 39.7629 152.131 39.6168 151.944 39.4309C151.756 39.245 151.609 39.0232 151.511 38.7789C151.413 38.5347 151.367 38.2732 151.374 38.0104V20.2537C151.368 18.3106 151.868 16.3989 152.826 14.7048C153.739 13.0968 155.065 11.7588 156.67 10.8279C157.903 10.1035 159.267 9.62908 160.686 9.43195C162.104 9.23483 163.548 9.31896 164.933 9.67948C166.319 10.04 167.618 10.6698 168.757 11.5323C169.896 12.3949 170.851 13.4732 171.568 14.7048C172.536 16.394 173.03 18.3103 172.998 20.2537C173.03 22.1724 172.578 24.0686 171.683 25.7694C170.85 27.3475 169.611 28.6786 168.093 29.6277C166.688 30.4723 165.094 30.9573 163.454 31.0393C161.814 31.1213 160.179 30.7977 158.696 30.0976C157.419 29.4761 156.288 28.5937 155.378 27.508V38.0326C155.386 38.2936 155.342 38.5536 155.248 38.7975C155.154 39.0414 155.012 39.2642 154.83 39.4531C154.639 39.6395 154.411 39.7842 154.16 39.8779C153.909 39.9715 153.641 40.0121 153.374 39.9969ZM162.164 27.5265C163.421 27.5479 164.659 27.2157 165.735 26.5684C166.78 25.9368 167.639 25.0439 168.227 23.9789C168.834 22.8237 169.151 21.54 169.151 20.2371C169.151 18.9341 168.834 17.6505 168.227 16.4952C167.643 15.4203 166.784 14.5179 165.735 13.8798C164.939 13.3985 164.053 13.0831 163.13 12.953C162.208 12.8229 161.268 12.8807 160.369 13.123C159.469 13.3653 158.629 13.7869 157.899 14.3622C157.169 14.9375 156.564 15.6545 156.122 16.4693C155.506 17.6261 155.195 18.9192 155.217 20.2278C155.197 21.5256 155.509 22.8071 156.122 23.953C156.702 25.0244 157.563 25.9194 158.614 26.5425C159.681 27.1934 160.911 27.5343 162.164 27.5265Z" fill="#FEFEFE"/>
<path d="M92.7777 28.2211L103.951 1.95615C104.074 1.61564 104.272 1.30638 104.529 1.05056C104.787 0.794734 105.098 0.598675 105.441 0.476435C105.804 0.356813 106.195 0.356813 106.558 0.476435C107.057 0.694462 107.456 1.09046 107.676 1.58622C108.257 2.69601 112.853 13.5571 119.035 28.4061C119.135 28.7638 119.135 29.1415 119.037 29.4996C118.939 29.8577 118.745 30.1828 118.476 30.4407C117.702 31.1251 116.543 30.8957 115.869 30.4407C115.42 30.1268 115.091 29.6701 114.938 29.1459L106 6.9502C100.975 18.8286 97.3774 27.4036 96.8746 28.961C96.694 29.6434 96.262 30.2335 95.6641 30.6146C95.2372 30.844 94.7416 30.9135 94.2675 30.8106C93.8202 30.6996 93.4254 30.4381 93.1501 30.0708C92.9596 29.8063 92.8278 29.5046 92.7636 29.1857C92.6994 28.8668 92.7042 28.538 92.7777 28.2211Z" fill="#FEFEFE" stroke="#FEFEFE" stroke-width="0.25" stroke-miterlimit="10"/>
<path d="M117.709 30.8497H105.087C104.851 30.8764 104.612 30.8535 104.385 30.7826C104.159 30.7116 103.95 30.5942 103.772 30.438C103.594 30.2817 103.451 30.09 103.353 29.8754C103.254 29.6608 103.202 29.428 103.2 29.1922C103.198 28.9564 103.246 28.7227 103.341 28.5064C103.435 28.2901 103.575 28.096 103.75 27.9366C103.925 27.7772 104.132 27.6562 104.357 27.5813C104.582 27.5064 104.82 27.4793 105.057 27.5018H114.368" fill="#FEFEFE"/>
<path d="M117.709 30.8497H105.087C104.851 30.8764 104.612 30.8535 104.385 30.7826C104.159 30.7116 103.95 30.5942 103.772 30.438C103.594 30.2817 103.451 30.09 103.353 29.8754C103.254 29.6608 103.202 29.428 103.2 29.1922C103.198 28.9564 103.246 28.7227 103.341 28.5064C103.435 28.2901 103.575 28.096 103.75 27.9366C103.925 27.7772 104.132 27.6562 104.357 27.5813C104.582 27.5064 104.82 27.4793 105.057 27.5018H114.368" stroke="#FEFEFE" stroke-width="0.25" stroke-miterlimit="10"/>
</g>
<defs>
<clipPath id="clip0_5353_132705">
<rect width="173" height="40" fill="white"/>
</clipPath>
</defs>
</svg>
