<svg width="98" height="23" viewBox="0 0 98 23" fill="none" xmlns="http://www.w3.org/2000/svg">
<g clip-path="url(#clip0_7153_10306)">
<path d="M8.58096 17.9527C7.443 17.9607 6.31531 17.7354 5.2664 17.2904C4.2175 16.8453 3.26929 16.19 2.47939 15.3641C1.69417 14.5389 1.07511 13.568 0.656511 12.5053C0.21262 11.3794 -0.0102205 10.1773 0.00035983 8.96577C-0.00950223 7.76466 0.213386 6.57317 0.656511 5.45819C1.07731 4.40034 1.6962 3.43407 2.47939 2.61214C3.2546 1.8008 4.17994 1.15043 5.20315 0.697755C6.26709 0.22832 7.41754 -0.00872969 8.57885 0.00219473C9.5817 -0.0203875 10.5809 0.13144 11.5326 0.451012C12.4369 0.80153 13.2753 1.30508 14.0116 1.93998C14.1177 2.01918 14.2116 2.1138 14.2901 2.22075C14.3511 2.30922 14.3961 2.40788 14.423 2.51217C14.4465 2.62619 14.4578 2.74243 14.4568 2.85888C14.4592 2.99333 14.4335 3.12678 14.3816 3.25062C14.3296 3.37446 14.2524 3.48594 14.1551 3.57784C13.9583 3.77051 13.6972 3.88205 13.423 3.89052C13.125 3.90328 12.8337 3.79879 12.6107 3.59911C12.1036 3.14671 11.53 2.77644 10.9102 2.50153C10.1693 2.22078 9.38039 2.09135 8.5894 2.12078C7.73807 2.11549 6.89601 2.29922 6.12303 2.65894C5.35501 3.01636 4.66401 3.52224 4.08917 4.1479C3.49835 4.77341 3.03145 5.50692 2.71358 6.30903C2.05994 8.02623 2.05994 9.92658 2.71358 11.6438C3.02631 12.4535 3.49044 13.1951 4.08074 13.8283C4.65511 14.4491 5.34656 14.948 6.11459 15.296C7.57538 15.9482 9.23205 15.9948 10.7266 15.4258C11.4206 15.1532 12.0749 14.7876 12.6719 14.3388C12.8951 14.1592 13.1756 14.0677 13.461 14.0814C13.7109 14.1003 13.9449 14.2126 14.1171 14.3962C14.2097 14.5009 14.2809 14.623 14.3265 14.7555C14.3722 14.8881 14.3913 15.0284 14.3829 15.1684C14.3832 15.318 14.3568 15.4664 14.3049 15.6066C14.2457 15.7583 14.15 15.8928 14.0264 15.9979C13.2697 16.6388 12.4041 17.1361 11.4714 17.4656C10.5419 17.7904 9.56473 17.9551 8.58096 17.9527ZM14.3829 15.1726L12.1592 14.7238V10.7121H9.09154C8.79185 10.7216 8.49934 10.6185 8.27082 10.4228C8.16462 10.3306 8.07941 10.2163 8.02099 10.0878C7.96258 9.95935 7.93234 9.81968 7.93234 9.67835C7.93234 9.53701 7.96258 9.39734 8.02099 9.26886C8.07941 9.14038 8.16462 9.02612 8.27082 8.93386C8.49914 8.73757 8.7916 8.63373 9.09154 8.64245H13.25C13.4017 8.63584 13.5532 8.66139 13.6946 8.71745C13.8359 8.77351 13.9641 8.85882 14.0707 8.9679C14.1769 9.0812 14.2593 9.21497 14.313 9.36118C14.3666 9.50739 14.3904 9.66302 14.3829 9.81873V15.1726Z" fill="#FEFEFE"/>
<path d="M20.731 17.727C20.111 17.7373 19.5038 17.5488 18.9968 17.1888C18.4805 16.8154 18.0737 16.3083 17.8195 15.7211C17.5275 15.0468 17.3836 14.3169 17.3975 13.5813V1.34411C17.391 1.19294 17.4149 1.04199 17.4678 0.900376C17.5206 0.758758 17.6014 0.6294 17.7052 0.520096C17.809 0.410792 17.9337 0.323806 18.0717 0.264379C18.2097 0.204953 18.3583 0.174316 18.5084 0.174316C18.6584 0.174316 18.807 0.204953 18.945 0.264379C19.083 0.323806 19.2077 0.410792 19.3115 0.520096C19.4153 0.6294 19.4961 0.758758 19.5489 0.900376C19.6018 1.04199 19.6257 1.19294 19.6192 1.34411V13.5813C19.6006 14.0571 19.7084 14.5293 19.9314 14.949C20.0023 15.1045 20.1146 15.2371 20.2557 15.3321C20.3969 15.4271 20.5614 15.4808 20.731 15.4872H21.288C21.4237 15.4827 21.5587 15.5083 21.6834 15.5624C21.8081 15.6164 21.9195 15.6975 22.0096 15.7998C22.2 16.0235 22.2995 16.3115 22.2881 16.606C22.2894 16.7654 22.2515 16.9226 22.1779 17.0636C22.1043 17.2047 21.9971 17.3251 21.8661 17.4143C21.5454 17.6343 21.1629 17.744 20.7753 17.727H20.731Z" fill="#FEFEFE"/>
<path d="M29.3642 17.8166C28.2532 17.8399 27.156 17.5654 26.1847 17.021C25.2772 16.5025 24.5279 15.7433 24.0179 14.8259C23.4797 13.8422 23.2075 12.733 23.2289 11.6097C23.206 10.4788 23.4781 9.36174 24.0179 8.37015C24.5284 7.45313 25.2776 6.69409 26.1847 6.17499C27.1594 5.65352 28.246 5.38086 29.3494 5.38086C30.4529 5.38086 31.5395 5.65352 32.5142 6.17499C33.4217 6.69348 34.1711 7.45267 34.6809 8.37015C35.2217 9.36137 35.4938 10.4787 35.47 11.6097C35.4914 12.7314 35.2239 13.8395 34.6936 14.8259C34.1918 15.743 33.4486 16.5027 32.5458 17.021C31.5739 17.5658 30.4759 17.8403 29.3642 17.8166ZM29.3642 15.8001C30.0819 15.8144 30.7895 15.6281 31.4086 15.2619C31.9999 14.905 32.4812 14.3895 32.799 13.773C33.1426 13.1016 33.3144 12.3544 33.299 11.5991C33.3137 10.8405 33.1419 10.09 32.799 9.41456C32.4816 8.79776 32.0001 8.2822 31.4086 7.92559C30.7841 7.5727 30.0801 7.38739 29.3642 7.38739C28.6483 7.38739 27.9443 7.5727 27.3198 7.92559C26.7267 8.28354 26.2421 8.79851 25.9189 9.41456C25.5685 10.0876 25.3929 10.8391 25.4083 11.5991C25.3921 12.3557 25.5678 13.104 25.9189 13.773C26.2428 14.3886 26.7271 14.9034 27.3198 15.2619C27.9389 15.6281 28.6465 15.8144 29.3642 15.8001Z" fill="#FEFEFE"/>
<path d="M40.9863 17.7269C40.7508 17.7275 40.5211 17.6531 40.3301 17.5142C40.1462 17.3852 40.0068 17.2015 39.9314 16.9888L36.6337 7.03822C36.5101 6.67131 36.5101 6.27352 36.6337 5.90661C36.7603 5.61519 37.0388 5.46842 37.4777 5.46842C37.7317 5.45946 37.9805 5.5433 38.1781 5.70453C38.3988 5.91975 38.5564 6.19203 38.6338 6.49156L41.4357 15.3211H40.6571L43.3071 6.31926C43.3715 6.08193 43.5027 5.86845 43.6847 5.70453C43.8969 5.55111 44.1515 5.4686 44.4126 5.4686C44.6737 5.4686 44.9283 5.55111 45.1405 5.70453C45.327 5.86283 45.4561 6.07904 45.5076 6.31926L47.6596 14.7872H47.3263L49.9488 6.49156C50.1626 5.81089 50.5508 5.46984 51.1134 5.46842C51.5353 5.46842 51.8096 5.61519 51.9573 5.90661C52.105 6.19802 52.0987 6.57451 51.9362 7.03822L48.6449 16.9888C48.5826 17.2024 48.4492 17.3879 48.2672 17.5142C48.0741 17.6568 47.8399 17.7315 47.6005 17.7269C47.3619 17.7268 47.1291 17.6525 46.9338 17.5142C46.7427 17.3929 46.6012 17.2065 46.5351 16.9888L44.2354 8.44849H44.459L42.0581 16.9888C41.993 17.2046 41.8548 17.3905 41.6677 17.5142C41.469 17.6567 41.2301 17.7312 40.9863 17.7269Z" fill="#FEFEFE"/>
<path d="M71.2585 22.9983C71.1085 23.0027 70.9591 22.9762 70.8195 22.9203C70.68 22.8645 70.5532 22.7806 70.447 22.6737C70.3407 22.5667 70.2572 22.4391 70.2016 22.2985C70.146 22.1579 70.1194 22.0073 70.1235 21.856V11.646C70.12 10.5287 70.4035 9.42947 70.9463 8.45534C71.4639 7.5306 72.216 6.76125 73.1257 6.22615C73.8239 5.80964 74.5971 5.53682 75.4006 5.42347C76.204 5.31013 77.0218 5.3585 77.8066 5.5658C78.5914 5.7731 79.3276 6.13521 79.9727 6.63119C80.6178 7.12717 81.159 7.74717 81.5649 8.45534C82.1139 9.42648 82.3944 10.5283 82.3772 11.646C82.3952 12.7492 82.1392 13.8395 81.6324 14.8175C81.1577 15.7209 80.4556 16.4823 79.5965 17.0254C78.8003 17.511 77.897 17.7899 76.9677 17.837C76.0383 17.8842 75.1118 17.6981 74.2713 17.2955C73.5487 16.9376 72.9089 16.4303 72.3936 15.8066V21.8582C72.3983 22.0084 72.3731 22.1581 72.3195 22.2984C72.2659 22.4387 72.1849 22.5668 72.0814 22.675C71.9743 22.7839 71.8457 22.869 71.704 22.9247C71.5623 22.9804 71.4105 23.0055 71.2585 22.9983ZM76.2377 15.8279C76.9494 15.8401 77.6501 15.6491 78.2589 15.2769C78.8505 14.9138 79.3372 14.4003 79.6703 13.788C80.014 13.1237 80.1935 12.3856 80.1935 11.6364C80.1935 10.8872 80.014 10.1491 79.6703 9.48486C79.3397 8.86675 78.8528 8.34789 78.2589 7.981C77.6465 7.62153 76.9505 7.43215 76.2419 7.43215C75.5333 7.43215 74.8373 7.62153 74.2249 7.981C73.63 8.34014 73.1424 8.85457 72.8135 9.46997C72.4649 10.1353 72.2892 10.8788 72.3029 11.6311C72.2909 12.3771 72.4666 13.114 72.8135 13.7731C73.1428 14.3882 73.6304 14.9025 74.2249 15.262C74.8302 15.6367 75.5275 15.8327 76.2377 15.8279Z" fill="#FEFEFE"/>
<path d="M86.8824 22.9983C86.7325 23.0024 86.5834 22.9757 86.4441 22.9197C86.3048 22.8638 86.1782 22.7798 86.0722 22.6729C85.9662 22.566 85.8829 22.4384 85.8274 22.298C85.7719 22.1575 85.7454 22.0072 85.7494 21.8561V11.646C85.746 10.5287 86.0294 9.42947 86.5723 8.45535C87.0891 7.53075 87.8406 6.76139 88.7496 6.22615C89.4478 5.80964 90.221 5.53682 91.0244 5.42347C91.8279 5.31013 92.6457 5.3585 93.4305 5.5658C94.2153 5.7731 94.9515 6.13521 95.5966 6.63119C96.2417 7.12717 96.7829 7.74718 97.1888 8.45535C97.7372 9.42665 98.017 10.5285 97.999 11.646C98.0171 12.7492 97.761 13.8395 97.2542 14.8175C96.7822 15.7249 96.0805 16.4903 95.2204 17.0361C94.4246 17.5217 93.5217 17.8005 92.5926 17.8477C91.6636 17.8948 90.7375 17.7088 89.8973 17.3062C89.1737 16.9489 88.5331 16.4415 88.0175 15.8172V21.8688C88.0221 22.0189 87.9971 22.1684 87.9438 22.3086C87.8906 22.4489 87.8102 22.577 87.7073 22.6856C87.599 22.7928 87.4697 22.876 87.3277 22.9299C87.1856 22.9837 87.0339 23.007 86.8824 22.9983ZM91.8616 15.8279C92.574 15.8401 93.2754 15.6491 93.8849 15.2769C94.4766 14.9138 94.9633 14.4003 95.2963 13.788C95.64 13.1237 95.8195 12.3856 95.8195 11.6364C95.8195 10.8872 95.64 10.1491 95.2963 9.48486C94.9658 8.86675 94.4788 8.34789 93.8849 7.98101C93.434 7.70421 92.9319 7.52288 92.4093 7.44806C91.8866 7.37324 91.3543 7.4065 90.8448 7.54581C90.3353 7.68512 89.8593 7.92757 89.4458 8.25838C89.0322 8.58919 88.6898 9.00143 88.4394 9.46997C88.0902 10.1351 87.9138 10.8786 87.9268 11.6311C87.9155 12.3773 88.0919 13.1142 88.4394 13.7731C88.7675 14.3891 89.2554 14.9038 89.8509 15.2621C90.4555 15.6363 91.1521 15.8323 91.8616 15.8279Z" fill="#FEFEFE"/>
<path d="M52.5558 16.2274L58.8853 1.12508C58.955 0.929284 59.0668 0.751463 59.2127 0.604364C59.3586 0.457265 59.535 0.344531 59.7292 0.274243C59.9347 0.205461 60.1567 0.205461 60.3621 0.274243C60.6449 0.399609 60.8707 0.627306 60.9951 0.912371C61.3242 1.5505 63.9277 7.79564 67.43 16.3338C67.4865 16.5395 67.4869 16.7567 67.4312 16.9626C67.3755 17.1684 67.2657 17.3554 67.1135 17.5037C66.6747 17.8972 66.0186 17.7653 65.6367 17.5037C65.382 17.3232 65.196 17.0606 65.1092 16.7592L60.0457 3.99666C57.1995 10.8267 55.1615 15.7573 54.8766 16.6529C54.7743 17.0452 54.5296 17.3846 54.1909 17.6037C53.9491 17.7356 53.6684 17.7756 53.3998 17.7164C53.1464 17.6525 52.9227 17.5022 52.7668 17.291C52.6589 17.1389 52.5842 16.9655 52.5479 16.7821C52.5115 16.5987 52.5142 16.4097 52.5558 16.2274Z" fill="#FEFEFE" stroke="#FEFEFE" stroke-width="0.25" stroke-miterlimit="10"/>
<path d="M66.6787 17.7385H59.5285C59.3949 17.7539 59.2595 17.7407 59.1312 17.6999C59.0029 17.6591 58.8846 17.5916 58.7838 17.5018C58.6831 17.4119 58.6022 17.3017 58.5464 17.1783C58.4906 17.0549 58.4612 16.9211 58.46 16.7855C58.4588 16.6499 58.4859 16.5155 58.5395 16.3911C58.5931 16.2668 58.6721 16.1551 58.7712 16.0635C58.8704 15.9719 58.9875 15.9022 59.1151 15.8592C59.2426 15.8161 59.3777 15.8006 59.5116 15.8135H64.7862" fill="#FEFEFE"/>
<path d="M66.6787 17.7385H59.5285C59.3949 17.7539 59.2595 17.7407 59.1312 17.6999C59.0029 17.6591 58.8846 17.5916 58.7838 17.5018C58.6831 17.4119 58.6022 17.3017 58.5464 17.1783C58.4906 17.0549 58.4612 16.9211 58.46 16.7855C58.4588 16.6499 58.4859 16.5155 58.5395 16.3911C58.5931 16.2668 58.6721 16.1551 58.7712 16.0635C58.8704 15.9719 58.9875 15.9022 59.1151 15.8592C59.2426 15.8161 59.3777 15.8006 59.5116 15.8135H64.7862" stroke="#FEFEFE" stroke-width="0.25" stroke-miterlimit="10"/>
</g>
<defs>
<clipPath id="clip0_7153_10306">
<rect width="98" height="23" fill="white"/>
</clipPath>
</defs>
</svg>
