<svg width="30" height="18" viewBox="0 0 30 18" fill="none" xmlns="http://www.w3.org/2000/svg">
<g clip-path="url(#clip0_5552_128756)">
<path d="M8.27782 17.7711C7.18006 17.779 6.0922 17.5559 5.08036 17.1154C4.06851 16.6749 3.1538 16.0261 2.3918 15.2086C1.63432 14.3918 1.03713 13.4307 0.633319 12.3787C0.205109 11.2642 -0.00985948 10.0743 0.000347118 8.87503C-0.00916654 7.68608 0.205848 6.50665 0.633319 5.40295C1.03925 4.35581 1.63628 3.39931 2.3918 2.5857C3.13962 1.78258 4.03228 1.13879 5.01934 0.690693C6.04569 0.226009 7.1555 -0.00864134 8.27579 0.00217252C9.2432 -0.0201811 10.2071 0.13011 11.1252 0.446447C11.9976 0.793418 12.8063 1.29187 13.5166 1.92034C13.619 1.99874 13.7095 2.09241 13.7853 2.19828C13.8442 2.28585 13.8876 2.38351 13.9135 2.48674C13.9362 2.59962 13.9471 2.71467 13.9461 2.82995C13.9484 2.96303 13.9236 3.09514 13.8735 3.21773C13.8234 3.34031 13.7489 3.45066 13.655 3.54163C13.4652 3.73236 13.2133 3.84276 12.9488 3.85115C12.6613 3.86377 12.3803 3.76034 12.1652 3.56269C11.6761 3.11487 11.1226 2.74834 10.5248 2.47621C9.81003 2.1983 9.049 2.07019 8.28596 2.09932C7.4647 2.09408 6.6524 2.27596 5.90672 2.63203C5.16583 2.98584 4.49924 3.48659 3.94472 4.10592C3.37476 4.7251 2.92436 5.45119 2.61771 6.24518C1.98716 7.945 1.98716 9.82612 2.61771 11.5259C2.91939 12.3275 3.36713 13.0616 3.93657 13.6884C4.49065 14.3028 5.15768 14.7968 5.89858 15.1412C7.30777 15.7868 8.90591 15.833 10.3477 15.2696C11.0171 14.9999 11.6483 14.638 12.2242 14.1937C12.4396 14.0159 12.7102 13.9253 12.9854 13.9389C13.2266 13.9576 13.4523 14.0687 13.6184 14.2505C13.7077 14.3542 13.7764 14.475 13.8204 14.6062C13.8644 14.7374 13.8829 14.8763 13.8748 15.0149C13.8751 15.163 13.8496 15.3099 13.7995 15.4486C13.7424 15.5988 13.6501 15.732 13.5309 15.836C12.8009 16.4705 11.9659 16.9627 11.0662 17.2889C10.1695 17.6104 9.22684 17.7734 8.27782 17.7711ZM13.8748 15.0191L11.7297 14.5748V10.6037H8.77036C8.48126 10.6131 8.19909 10.5111 7.97864 10.3173C7.87619 10.226 7.79398 10.1129 7.73763 9.98574C7.68129 9.85856 7.65212 9.7203 7.65212 9.5804C7.65212 9.44049 7.68129 9.30224 7.73763 9.17506C7.79398 9.04788 7.87619 8.93477 7.97864 8.84345C8.19889 8.64914 8.48102 8.54635 8.77036 8.55499H12.7819C12.9283 8.54845 13.0744 8.57374 13.2108 8.62922C13.3471 8.68471 13.4707 8.76917 13.5736 8.87714C13.6761 8.98929 13.7556 9.12171 13.8073 9.26644C13.8591 9.41117 13.8821 9.56523 13.8748 9.71936V15.0191Z" fill="#FEFEFE"/>
<path d="M15.5904 16.232L21.6962 1.28245C21.7635 1.08864 21.8713 0.912616 22.0121 0.767005C22.1528 0.621395 22.323 0.509801 22.5103 0.440225C22.7085 0.372139 22.9227 0.372139 23.1209 0.440225C23.3941 0.563628 23.6122 0.78924 23.7315 1.0719C24.049 1.70357 26.5605 7.88551 29.9391 16.3373C29.9935 16.5409 29.9939 16.7559 29.9402 16.9597C29.8864 17.1635 29.7806 17.3485 29.6338 17.4953C29.2104 17.8849 28.5775 17.7543 28.2091 17.4953C27.9634 17.3166 27.784 17.0567 27.7003 16.7584L22.8156 4.12497C20.07 10.8859 18.1039 15.7688 17.8292 16.6531C17.7294 17.0387 17.4933 17.3716 17.1677 17.5859C16.9346 17.717 16.6636 17.7566 16.4045 17.6975C16.16 17.6342 15.9443 17.4854 15.7939 17.2763C15.6909 17.1269 15.6195 16.9566 15.5845 16.7766C15.5494 16.5967 15.5514 16.4111 15.5904 16.232Z" fill="#FEFEFE"/>
<path d="M29.2145 17.7273H22.3169C22.1854 17.7489 22.051 17.7408 21.9227 17.7037C21.7945 17.6666 21.6755 17.6013 21.5738 17.5123C21.4722 17.4233 21.3903 17.3127 21.3338 17.1879C21.2772 17.0632 21.2473 16.9273 21.2461 16.7896C21.2449 16.6518 21.2725 16.5154 21.3269 16.3897C21.3813 16.2639 21.4613 16.1518 21.5614 16.061C21.6615 15.9701 21.7793 15.9026 21.9069 15.8632C22.0345 15.8237 22.1688 15.8132 22.3007 15.8323L27.3889 15.8218" fill="#FEFEFE"/>
</g>
<defs>
<clipPath id="clip0_5552_128756">
<rect width="30" height="17.7689" fill="white"/>
</clipPath>
</defs>
</svg>
