<svg width="18" height="18" viewBox="0 0 18 18" fill="none" xmlns="http://www.w3.org/2000/svg">
<path fill-rule="evenodd" clip-rule="evenodd" d="M3.28571 1H14.7143C15.3205 1 15.9019 1.24082 16.3305 1.66947C16.7592 2.09812 17 2.67951 17 3.28571V14.7143C17 15.3205 16.7592 15.9019 16.3305 16.3305C15.9019 16.7592 15.3205 17 14.7143 17H3.28571C2.67951 17 2.09812 16.7592 1.66947 16.3305C1.24082 15.9019 1 15.3205 1 14.7143V3.28571C1 2.67951 1.24082 2.09812 1.66947 1.66947C2.09812 1.24082 2.67951 1 3.28571 1V1Z" stroke="#582E90" stroke-width="1.14286" stroke-linecap="round" stroke-linejoin="round"/>
<path d="M5.57144 8.99999L7.85716 11.2857L12.4286 6.71428" stroke="#582E90" stroke-width="1.14286" stroke-linecap="round" stroke-linejoin="round"/>
</svg>
