<svg width="109" height="109" viewBox="0 0 109 109" fill="none" xmlns="http://www.w3.org/2000/svg">
<circle cx="54.5" cy="54.5" r="54.5" fill="#582E90"/>
<path fill-rule="evenodd" clip-rule="evenodd" d="M58.7142 31.5583C58.373 31.1469 57.6513 30.8876 57.2673 31.0486C57.1903 31.1138 57.0963 31.2152 57.0733 31.2448C57.0453 31.2823 57.0254 31.3148 57.0231 31.3186L57.0229 31.319C57.0132 31.3348 57.0054 31.3483 57.0038 31.3512L57.0036 31.3515L56.9908 31.3743L56.9631 31.4241C56.9396 31.4659 56.9037 31.529 56.8552 31.6111C56.7582 31.7754 56.6101 32.0168 56.4109 32.3136C56.0118 32.9082 55.411 33.7201 54.6103 34.5762C53.0018 36.2962 50.6359 38.1432 47.5226 38.8322L46.7021 39.0138L46.7396 39.8532L47.7386 39.8086C46.7396 39.8532 46.7397 39.8537 46.7397 39.8541L46.7397 39.8553L46.7399 39.8584L46.7403 39.8678L46.7421 39.8996C46.7436 39.9264 46.7459 39.9644 46.7493 40.0127C46.756 40.1095 46.7669 40.248 46.784 40.4229C46.8182 40.7724 46.8772 41.2683 46.9771 41.8661C47.1763 43.0579 47.5413 44.6729 48.2068 46.3461C49.5312 49.6754 52.134 53.4211 57.1521 54.2469L57.2327 54.2601H57.3144V53.2601C57.3144 54.2601 57.3153 54.2601 57.3161 54.2601L57.318 54.2601L57.3223 54.2601L57.3332 54.26L57.3643 54.2594C57.3891 54.2588 57.4219 54.2576 57.4624 54.2555C57.5432 54.2512 57.6544 54.2431 57.7925 54.2277C58.0684 54.1968 58.4524 54.1367 58.9146 54.0191C59.8394 53.7838 61.08 53.3179 62.39 52.3966C65.0361 50.5356 67.8274 46.9156 68.9884 39.9736L69.1269 39.1456L68.3359 38.866L68.3358 38.8659L68.3356 38.8659L68.3354 38.8658L68.3328 38.8649L68.3182 38.8596C68.3045 38.8547 68.2832 38.8469 68.2546 38.8363C68.1973 38.8151 68.1112 38.7826 67.9997 38.7391C67.7767 38.6521 67.453 38.5212 67.058 38.3484C66.2663 38.0022 65.1966 37.4914 64.0799 36.8328C61.7838 35.4787 59.5415 33.6448 58.8217 31.5219L58.7142 31.5583ZM66.8719 40.4417C66.6914 40.3677 66.4847 40.2806 66.2565 40.1808C65.4133 39.812 64.2679 39.2656 63.0639 38.5556C61.2119 37.4633 59.0629 35.8935 57.7634 33.8734C57.3379 34.4702 56.7741 35.1906 56.071 35.9423C54.4425 37.6838 52.0251 39.6373 48.8111 40.5666C48.8428 40.8359 48.8874 41.1637 48.9497 41.5363C49.1332 42.6342 49.467 44.1031 50.0652 45.6068C51.2586 48.6069 53.4184 51.5633 57.3798 52.2569C57.4243 52.2542 57.4885 52.2492 57.5704 52.24C57.7647 52.2183 58.0575 52.1734 58.4215 52.0808C59.1492 51.8957 60.1586 51.5209 61.2394 50.7607C63.2855 49.3216 65.7147 46.4098 66.8719 40.4417Z" fill="#F1ECF9"/>
<path fill-rule="evenodd" clip-rule="evenodd" d="M57.1042 25.1951C51.5477 25.6096 48.0064 27.4424 45.7541 29.8515C43.4877 32.2758 42.4242 35.3931 42.0405 38.5511C41.6568 41.7095 41.9623 44.8404 42.3722 47.1992C42.5764 48.3746 42.8048 49.3486 42.9812 50.026C43.0492 50.2869 43.1094 50.5034 43.1574 50.6701L48.5244 53.3088L47.6419 55.1036L41.5058 52.0868L41.375 51.6857L42.3256 51.3755C41.375 51.6857 41.3748 51.6853 41.3746 51.6847L41.3741 51.683L41.3724 51.678L41.367 51.661L41.3477 51.5998C41.3313 51.5471 41.308 51.4708 41.2789 51.3726C41.2209 51.1761 41.1399 50.8913 41.0458 50.5302C40.8578 49.8086 40.6169 48.78 40.4017 47.5416C39.9728 45.0729 39.6394 41.7313 40.0551 38.3098C40.4709 34.8879 41.6451 31.3182 44.2932 28.4857C46.9554 25.6381 51.0053 23.6445 56.9554 23.2006L57.0297 24.1964C56.956 23.2006 56.9567 23.2005 56.9575 23.2005L56.9594 23.2003L56.9649 23.1999L56.9822 23.1988C56.9965 23.1979 57.0163 23.1967 57.0413 23.1953C57.0914 23.1926 57.1626 23.1892 57.2534 23.1862C57.4349 23.1802 57.6948 23.1755 58.0203 23.1801C58.6705 23.1893 59.5858 23.2356 60.6617 23.3833C62.805 23.6777 65.6321 24.3809 68.2687 26.0367C70.9236 27.704 73.3609 30.324 74.6987 34.3849C76.0301 38.4265 76.2479 43.8189 74.6227 51.0085L74.5218 51.4551L67.7051 55.0887L66.7644 53.3237L72.7707 50.1221C74.2328 43.397 73.9584 38.5298 72.7991 35.0107C71.6207 31.4336 69.5039 29.1742 67.205 27.7304C64.8877 26.2751 62.3613 25.6355 60.3896 25.3647C59.4079 25.2299 58.5753 25.1881 57.992 25.1799C57.7006 25.1758 57.4724 25.18 57.3199 25.1851C57.2437 25.1876 57.1865 25.1904 57.1499 25.1923L57.1106 25.1946L57.1042 25.1951Z" fill="#F1ECF9"/>
<path fill-rule="evenodd" clip-rule="evenodd" d="M50.0481 53.6371C49.4226 55.0393 48.457 56.2897 47.2311 57.3028C45.2916 58.9206 43.1618 59.4503 41.2507 59.7272C40.7274 59.803 40.1537 59.8671 39.6174 59.927C39.2408 59.969 38.8828 60.009 38.5736 60.0496C37.7505 60.1575 37.0521 60.2907 36.4564 60.5175C35.1959 61.0171 33.8463 62.139 32.8161 64.7489C31.799 67.3254 31.1128 71.3124 31.1665 77.4378C32.395 78.2532 33.6886 78.9907 35.0379 79.6441C47.3061 85.5408 60.9728 82.6527 66.9647 80.9705L67.5053 82.8961C61.4306 84.6015 47.1379 87.6798 34.1699 81.446L34.1673 81.4447C32.5711 80.6717 31.0459 79.7866 29.6066 78.7976L29.1809 78.5051L29.173 77.9887C29.073 71.4465 29.7734 67.01 30.9558 64.0145C32.1522 60.9838 33.86 59.3928 35.7268 58.6553L35.7373 58.6512L35.7373 58.6512C36.5583 58.3375 37.4462 58.1803 38.3136 58.0666C38.7263 58.0124 39.104 57.9709 39.4776 57.9298C39.958 57.877 40.4316 57.8249 40.9639 57.7478C42.726 57.4926 44.4266 57.0383 45.9515 55.7657L45.9554 55.7624L45.9554 55.7624C46.9571 54.9351 47.728 53.9288 48.2216 52.8223L50.0481 53.6371Z" fill="#F1ECF9"/>
<path fill-rule="evenodd" clip-rule="evenodd" d="M71.345 55.6611C72.752 54.9009 74.3594 54.5029 75.992 54.5029C77.6246 54.5029 79.232 54.9009 80.639 55.6611L81.5318 56.1435L77.6472 63.0878H74.9641L70.3818 56.1815L71.345 55.6611ZM73.3048 56.9694L76.0373 61.0878H76.4743L78.7612 56.9996C77.8921 56.6741 76.9506 56.5029 75.992 56.5029C75.0635 56.5029 74.151 56.6635 73.3048 56.9694Z" fill="#F1ECF9"/>
<path fill-rule="evenodd" clip-rule="evenodd" d="M75.2075 70.9842V62.103H77.2075V70.9842H75.2075Z" fill="#F1ECF9"/>
<path fill-rule="evenodd" clip-rule="evenodd" d="M71.9131 69.5801H80.3033L79.2685 79.1642H72.9478L71.9131 69.5801ZM74.1406 71.5801L74.7435 77.1642H77.4728L78.0757 71.5801H74.1406Z" fill="#F1ECF9"/>
</svg>
