<svg width="50" height="50" viewBox="0 0 24 24" fill="none" xmlns="http://www.w3.org/2000/svg">
<path fill-rule="evenodd" clip-rule="evenodd" d="M20 16.5714V5.14286C20 4.53665 19.7592 3.95527 19.3305 3.52662C18.9019 3.09796 18.3205 2.85715 17.7143 2.85715H8.57142C7.96521 2.85715 7.38383 3.09796 6.95518 3.52662C6.52652 3.95527 6.28571 4.53665 6.28571 5.14286V16.5714C6.28571 17.1776 6.52652 17.759 6.95518 18.1877C7.38383 18.6163 7.96521 18.8571 8.57142 18.8571H17.7143C18.3205 18.8571 18.9019 18.6163 19.3305 18.1877C19.7592 17.759 20 17.1776 20 16.5714Z" stroke="#FEFEFE" stroke-width="1.14286" stroke-linecap="round" stroke-linejoin="round"/>
<path d="M6.06284 5.64001L3.77255 6.4743C3.20309 6.68172 2.73932 7.10681 2.48321 7.6561C2.22711 8.20539 2.19964 8.8339 2.40684 9.40344L6.31541 20.1429C6.41811 20.425 6.57538 20.6841 6.77823 20.9054C6.98108 21.1267 7.22554 21.3059 7.49765 21.4327C7.76977 21.5595 8.0642 21.6315 8.36413 21.6445C8.66406 21.6576 8.96362 21.6114 9.2457 21.5086L15.6091 18.9966M9.71427 8.57144H15.4286M9.71427 10.8572H16.5714M9.71427 13.1429H13.1428" stroke="#FEFEFE" stroke-width="1.14286" stroke-linecap="round" stroke-linejoin="round"/>
</svg>
