<svg width="50" height="50" viewBox="0 0 24 24" fill="none" xmlns="http://www.w3.org/2000/svg">
<path fill-rule="evenodd" clip-rule="evenodd" d="M12 21.1886L12.7211 20.376C13.5394 19.4389 14.2754 18.5497 14.9303 17.704L15.4708 16.9909C17.728 13.9497 18.8571 11.536 18.8571 9.752C18.8571 5.944 15.7874 2.85714 12 2.85714C8.21254 2.85714 5.14282 5.944 5.14282 9.752C5.14282 11.536 6.27197 13.9497 8.52911 16.9909L9.06968 17.704C10.0039 18.901 10.9813 20.0637 12 21.1897V21.1886Z" stroke="#FEFEFE" stroke-width="1.14286" stroke-linecap="round" stroke-linejoin="round"/>
<path d="M12 12.5714C13.5779 12.5714 14.8571 11.2922 14.8571 9.71428C14.8571 8.13633 13.5779 6.85714 12 6.85714C10.422 6.85714 9.14282 8.13633 9.14282 9.71428C9.14282 11.2922 10.422 12.5714 12 12.5714Z" stroke="#FEFEFE" stroke-width="1.14286" stroke-linecap="round" stroke-linejoin="round"/>
</svg>
