<svg width="50" height="50" viewBox="0 0 24 24" fill="none" xmlns="http://www.w3.org/2000/svg">
<path d="M8.57145 5.14288H6.28574C5.98264 5.14288 5.69195 5.26329 5.47762 5.47762C5.26329 5.69195 5.14288 5.98264 5.14288 6.28574V18.8572C5.14288 19.1603 5.26329 19.451 5.47762 19.6653C5.69195 19.8796 5.98264 20 6.28574 20H17.7143C18.0174 20 18.3081 19.8796 18.5224 19.6653C18.7368 19.451 18.8572 19.1603 18.8572 18.8572V6.28574C18.8572 5.98264 18.7368 5.69195 18.5224 5.47762C18.3081 5.26329 18.0174 5.14288 17.7143 5.14288H15.4286" stroke="#FEFEFE" stroke-width="1.14286" stroke-linecap="round" stroke-linejoin="round"/>
<path d="M8.57147 13.1429L10.8572 15.4286L16.5715 9.71429M9.71433 4H14.2858C14.5889 4 14.8796 4.12041 15.0939 4.33474C15.3082 4.54906 15.4286 4.83975 15.4286 5.14286C15.4286 5.44596 15.3082 5.73665 15.0939 5.95098C14.8796 6.16531 14.5889 6.28571 14.2858 6.28571H9.71433C9.41122 6.28571 9.12053 6.16531 8.90621 5.95098C8.69188 5.73665 8.57147 5.44596 8.57147 5.14286C8.57147 4.83975 8.69188 4.54906 8.90621 4.33474C9.12053 4.12041 9.41122 4 9.71433 4V4Z" stroke="#FEFEFE" stroke-width="1.14286" stroke-linecap="round" stroke-linejoin="round"/>
</svg>
