<svg width="50" height="50" viewBox="0 0 24 24" fill="none" xmlns="http://www.w3.org/2000/svg">
<path d="M8.57143 4H15.4286C15.7317 4 16.0224 4.12041 16.2367 4.33474C16.451 4.54906 16.5714 4.83975 16.5714 5.14286V10.8571C16.5714 12.0696 16.0898 13.2323 15.2325 14.0896C14.3752 14.9469 13.2124 15.4286 12 15.4286C10.7876 15.4286 9.62482 14.9469 8.76751 14.0896C7.9102 13.2323 7.42857 12.0696 7.42857 10.8571V5.14286C7.42857 4.83975 7.54898 4.54906 7.76331 4.33474C7.97763 4.12041 8.26832 4 8.57143 4ZM12 15.4286V18.8571V15.4286ZM8.57143 18.8571H15.4286C15.7317 18.8571 16.0224 18.9776 16.2367 19.1919C16.451 19.4062 16.5714 19.6969 16.5714 20C16.5714 20.3031 16.451 20.5938 16.2367 20.8081C16.0224 21.0225 15.7317 21.1429 15.4286 21.1429H8.57143C8.26832 21.1429 7.97763 21.0225 7.76331 20.8081C7.54898 20.5938 7.42857 20.3031 7.42857 20C7.42857 19.6969 7.54898 19.4062 7.76331 19.1919C7.97763 18.9776 8.26832 18.8571 8.57143 18.8571ZM16.5714 6.28571H18.8571C19.1602 6.28571 19.4509 6.40612 19.6653 6.62045C19.8796 6.83478 20 7.12547 20 7.42857V8.57143C20 9.17764 19.7592 9.75902 19.3305 10.1877C18.9019 10.6163 18.3205 10.8571 17.7143 10.8571H16.5714V6.28571ZM7.42857 6.28571H5.14286C4.83975 6.28571 4.54906 6.40612 4.33474 6.62045C4.12041 6.83478 4 7.12547 4 7.42857V8.57143C4 9.17764 4.24082 9.75902 4.66947 10.1877C5.09812 10.6163 5.67951 10.8571 6.28571 10.8571H7.42857V6.28571Z" stroke="#FEFEFE" stroke-width="1.14286" stroke-linecap="round" stroke-linejoin="round"/>
</svg>
