<svg width="50" height="50" viewBox="0 0 24 24" fill="none" xmlns="http://www.w3.org/2000/svg">
<path d="M21.1429 13.1429V16.5714C21.1429 18.0571 17.5612 20 13.1429 20C8.7246 20 5.14288 18.0571 5.14288 16.5714V13.7143" stroke="#FEFEFE" stroke-width="1.14286" stroke-linecap="round" stroke-linejoin="round"/>
<path d="M5.47888 14.0103C6.46745 15.3223 9.5246 16.5531 13.1429 16.5531C17.5612 16.5531 21.1429 14.7177 21.1429 13.1406C21.1429 12.2549 20.0149 11.2846 18.2446 10.6034" stroke="#FEFEFE" stroke-width="1.14286" stroke-linecap="round" stroke-linejoin="round"/>
<path d="M17.7143 7.42856V10.8571C17.7143 12.3428 14.1326 14.2857 9.71429 14.2857C5.29601 14.2857 1.71429 12.3428 1.71429 10.8571V7.42856" stroke="#FEFEFE" stroke-width="1.14286" stroke-linecap="round" stroke-linejoin="round"/>
<path fill-rule="evenodd" clip-rule="evenodd" d="M9.71429 10.8389C14.1326 10.8389 17.7143 9.00343 17.7143 7.42629C17.7143 5.848 14.1326 4 9.71429 4C5.29601 4 1.71429 5.848 1.71429 7.42629C1.71429 9.00343 5.29601 10.8389 9.71429 10.8389Z" stroke="#FEFEFE" stroke-width="1.14286" stroke-linecap="round" stroke-linejoin="round"/>
</svg>
