<svg width="16" height="17" viewBox="0 0 16 17" fill="none" xmlns="http://www.w3.org/2000/svg">
<path d="M14.0948 8.88118H11.8091M4.95192 3.54785C5.15399 3.54785 5.34778 3.62812 5.49066 3.77101C5.63355 3.91389 5.71382 4.10769 5.71382 4.30976V5.83357C5.71382 6.03564 5.63355 6.22943 5.49066 6.37231C5.34778 6.5152 5.15399 6.59547 4.95192 6.59547C4.74985 6.59547 4.55605 6.5152 4.41317 6.37231C4.27028 6.22943 4.19001 6.03564 4.19001 5.83357V4.30976C4.19001 4.10769 4.27028 3.91389 4.41317 3.77101C4.55605 3.62812 4.74985 3.54785 4.95192 3.54785V3.54785ZM14.0948 5.07166H5.71382H14.0948ZM4.19001 5.07166H1.9043H4.19001ZM4.95192 11.1669C5.15399 11.1669 5.34778 11.2472 5.49066 11.3901C5.63355 11.5329 5.71382 11.7267 5.71382 11.9288V13.4526C5.71382 13.6547 5.63355 13.8485 5.49066 13.9914C5.34778 14.1342 5.15399 14.2145 4.95192 14.2145C4.74985 14.2145 4.55605 14.1342 4.41317 13.9914C4.27028 13.8485 4.19001 13.6547 4.19001 13.4526V11.9288C4.19001 11.7267 4.27028 11.5329 4.41317 11.3901C4.55605 11.2472 4.74985 11.1669 4.95192 11.1669ZM14.0948 12.6907H5.71382H14.0948ZM4.19001 12.6907H1.9043H4.19001ZM11.0472 7.35738C11.2492 7.35738 11.443 7.43765 11.5859 7.58053C11.7288 7.72342 11.8091 7.91721 11.8091 8.11928V9.64309C11.8091 9.84516 11.7288 10.039 11.5859 10.1818C11.443 10.3247 11.2492 10.405 11.0472 10.405C10.8451 10.405 10.6513 10.3247 10.5084 10.1818C10.3655 10.039 10.2853 9.84516 10.2853 9.64309V8.11928C10.2853 7.91721 10.3655 7.72342 10.5084 7.58053C10.6513 7.43765 10.8451 7.35738 11.0472 7.35738V7.35738ZM10.2853 8.88118H1.9043H10.2853Z" stroke="#FEFEFE" stroke-width="1.14286" stroke-linecap="round" stroke-linejoin="round"/>
</svg>
