<svg width="32" height="32" viewBox="0 0 32 32" fill="none" xmlns="http://www.w3.org/2000/svg">
<path fill-rule="evenodd" clip-rule="evenodd" d="M16.0003 28.2515L16.9618 27.168C18.0529 25.9185 19.0342 24.733 19.9073 23.6054L20.6281 22.6545C23.6376 18.5997 25.1431 15.3814 25.1431 13.0027C25.1431 7.92538 21.0502 3.80957 16.0003 3.80957C10.9504 3.80957 6.85742 7.92538 6.85742 13.0027C6.85742 15.3814 8.36295 18.5997 11.3725 22.6545L12.0932 23.6054C13.3389 25.2014 14.6421 26.7516 16.0003 28.253V28.2515Z" stroke="#292929" stroke-width="1.14286" stroke-linecap="round" stroke-linejoin="round"/>
<path d="M16.0009 16.7621C18.1049 16.7621 19.8105 15.0565 19.8105 12.9526C19.8105 10.8486 18.1049 9.14307 16.0009 9.14307C13.897 9.14307 12.1914 10.8486 12.1914 12.9526C12.1914 15.0565 13.897 16.7621 16.0009 16.7621Z" stroke="#292929" stroke-width="1.14286" stroke-linecap="round" stroke-linejoin="round"/>
</svg>
