<svg width="32" height="32" viewBox="0 0 32 32" fill="none" xmlns="http://www.w3.org/2000/svg">
<path d="M15.9991 28.1905C22.7317 28.1905 28.1895 22.7327 28.1895 16C28.1895 9.26743 22.7317 3.80957 15.9991 3.80957C9.26646 3.80957 3.80859 9.26743 3.80859 16C3.80859 22.7327 9.26646 28.1905 15.9991 28.1905Z" stroke="#292929" stroke-width="1.14286" stroke-linecap="round" stroke-linejoin="round"/>
<path d="M15.9988 17.5239V16L18.1535 13.8454C18.725 13.274 19.0462 12.4989 19.0464 11.6907V11.4286C19.0464 10.4945 18.5192 9.64119 17.6841 9.22367L17.3611 9.06214C16.9381 8.85076 16.4717 8.74072 15.9988 8.74072C15.5259 8.74072 15.0595 8.85076 14.6365 9.06214L14.475 9.1429C13.5409 9.60919 12.9512 10.5646 12.9512 11.6084V12.9524" stroke="#292929" stroke-width="1.14286" stroke-linecap="round" stroke-linejoin="round"/>
<path d="M15.9984 23.6189C16.84 23.6189 17.5222 22.9367 17.5222 22.0951C17.5222 21.2535 16.84 20.5713 15.9984 20.5713C15.1568 20.5713 14.4746 21.2535 14.4746 22.0951C14.4746 22.9367 15.1568 23.6189 15.9984 23.6189Z" fill="#292929"/>
</svg>
