<svg width="110" height="109" viewBox="0 0 110 109" fill="none" xmlns="http://www.w3.org/2000/svg">
<circle cx="55" cy="54.5" r="54.5" fill="#582E90"/>
<path d="M43.3373 74.5489C45.8292 79.3845 51.8097 82.9743 57.541 82.9998C64.0498 83.0303 68.5053 78.4235 69.502 77.4066C71.5672 75.2618 73.1044 72.6479 73.9874 69.7794C74.2615 68.8845 74.3413 65.7778 74.4858 59.61C74.5257 57.8558 74.5905 53.7829 72.9907 51.9829C72.5731 51.4489 71.9799 51.0876 71.3211 50.9659C70.6742 50.9032 70.0272 51.084 69.502 51.4744C68.1714 52.4914 68.2561 54.5252 68.0069 54.5252C67.7577 54.5252 68.2411 52.1354 67.0102 50.4575C66.6819 49.9883 66.2491 49.6053 65.7475 49.3401C65.2458 49.0749 64.6896 48.9351 64.1246 48.932C62.2656 49.0795 60.3917 51.5507 60.5313 55.0337C60.93 51.0524 60.3219 47.9151 59.0361 46.8981C58.5596 46.5154 57.9852 46.2806 57.3815 46.2219C56.7166 46.2494 56.0761 46.4856 55.5475 46.8981C54.2069 47.9151 53.3995 51.0219 53.554 55.0337V35.2033C53.5339 34.3493 53.2253 33.5286 52.6804 32.8801C52.1355 32.2315 51.3878 31.7949 50.5637 31.6439C50.0708 31.6003 49.5743 31.6586 49.1041 31.8155C48.6338 31.9724 48.1994 32.2247 47.8271 32.5571C47.4547 32.8895 47.152 33.2952 46.9372 33.75C46.7223 34.2047 46.5997 34.699 46.5767 35.2033V59.1015C46.6714 60.1693 46.502 60.4744 46.3325 60.5507C45.4654 60.9269 43.9005 56.1015 40.0978 55.0337C39.7141 54.9269 37.6857 54.3575 36.1108 55.5422C34.6905 56.6151 34.2668 58.6439 34.6157 60.1185C34.835 61.0439 35.3383 61.6795 36.1108 62.6608C36.702 63.4097 37.3703 64.0916 38.1043 64.6947C40.4816 66.6727 41.9767 71.9252 43.3373 74.5489Z" stroke="#F1ECF9" stroke-width="2" stroke-miterlimit="10"/>
<path d="M37.6055 35.7119H43.0876" stroke="#F1ECF9" stroke-width="2" stroke-miterlimit="10"/>
<path d="M42.0908 26.5593L45.0811 29.6102" stroke="#F1ECF9" stroke-width="2" stroke-miterlimit="10"/>
<path d="M50.564 23V28.0847" stroke="#F1ECF9" stroke-width="2" stroke-miterlimit="10"/>
<path d="M59.5345 27.0679L56.0459 30.6272" stroke="#F1ECF9" stroke-width="2" stroke-miterlimit="10"/>
<path d="M58.0396 35.2034H62.5249" stroke="#F1ECF9" stroke-width="2" stroke-miterlimit="10"/>
</svg>
