<svg width="51" height="51" viewBox="0 0 51 51" fill="none" xmlns="http://www.w3.org/2000/svg">
<path fill-rule="evenodd" clip-rule="evenodd" d="M14.0334 9.0835H37.8429C39.1058 9.0835 40.3171 9.5852 41.2101 10.4782C42.1031 11.3713 42.6048 12.5825 42.6048 13.8454V37.6549C42.6048 38.9179 42.1031 40.1291 41.2101 41.0221C40.3171 41.9151 39.1058 42.4168 37.8429 42.4168H14.0334C12.7705 42.4168 11.5592 41.9151 10.6662 41.0221C9.77318 40.1291 9.27148 38.9179 9.27148 37.6549V13.8454C9.27148 12.5825 9.77318 11.3713 10.6662 10.4782C11.5592 9.5852 12.7705 9.0835 14.0334 9.0835V9.0835Z" stroke="#FEFEFE" stroke-width="2" stroke-linecap="round" stroke-linejoin="round"/>
<path d="M42.6048 32.893L35.462 25.7502L28.3191 32.8573M37.8429 42.4169L16.4143 20.9883L9.27148 28.1311" stroke="#FEFEFE" stroke-width="2" stroke-linecap="round" stroke-linejoin="round"/>
<path d="M34.2716 19.7976C35.5865 19.7976 36.6525 18.7316 36.6525 17.4166C36.6525 16.1016 35.5865 15.0356 34.2716 15.0356C32.9566 15.0356 31.8906 16.1016 31.8906 17.4166C31.8906 18.7316 32.9566 19.7976 34.2716 19.7976Z" fill="#FEFEFE"/>
</svg>
