<svg width="50" height="50" viewBox="0 0 50 50" fill="none" xmlns="http://www.w3.org/2000/svg">
<path d="M42.727 31.332V37.3597C42.727 39.9718 36.43 43.3875 28.6623 43.3875C20.8946 43.3875 14.5977 39.9718 14.5977 37.3597V31.332" stroke="#FEFEFE" stroke-width="2" stroke-linecap="round" stroke-linejoin="round"/>
<path fill-rule="evenodd" clip-rule="evenodd" d="M28.6623 37.327C36.43 37.327 42.727 34.1002 42.727 31.3274C42.727 28.5526 36.43 25.3037 28.6623 25.3037C20.8946 25.3037 14.5977 28.5526 14.5977 31.3274C14.5977 34.1002 20.8946 37.327 28.6623 37.327Z" stroke="#FEFEFE" stroke-width="2" stroke-linecap="round" stroke-linejoin="round"/>
<path d="M13.9844 25.0483C7.87368 25.0483 2.91997 20.0946 2.91997 13.9839C2.91997 7.87315 7.87368 2.91943 13.9844 2.91943C20.0951 2.91943 25.0488 7.87315 25.0488 13.9839C25.0488 20.0946 20.0951 25.0483 13.9844 25.0483Z" stroke="#FEFEFE" stroke-width="2" stroke-linecap="round" stroke-linejoin="round"/>
<path d="M13.9835 9.83447V15.3667H18.8242" stroke="#FEFEFE" stroke-width="2" stroke-linecap="round" stroke-linejoin="round"/>
</svg>
