<svg width="50" height="50" viewBox="0 0 50 50" fill="none" xmlns="http://www.w3.org/2000/svg">
<path fill-rule="evenodd" clip-rule="evenodd" d="M30.7475 8.33301H39.2856C40.5485 8.33301 41.7597 8.83471 42.6527 9.72774C43.5458 10.6208 44.0475 11.832 44.0475 13.0949V21.633C44.0473 22.2644 43.7964 22.8699 43.3498 23.3163L27.176 39.4902C26.283 40.3829 25.072 40.8844 23.8094 40.8844C22.5467 40.8844 21.3357 40.3829 20.4427 39.4902L12.8903 31.9378C11.9976 31.0448 11.4961 29.8338 11.4961 28.5711C11.4961 27.3084 11.9976 26.0974 12.8903 25.2044L29.0641 9.03063C29.5105 8.58408 30.116 8.33314 30.7475 8.33301V8.33301Z" stroke="#582E90" stroke-width="2" stroke-linecap="round" stroke-linejoin="round"/>
<path d="M20.2381 39.2852L15.4453 41.6804C14.8484 41.9789 14.1955 42.1486 13.5289 42.1785C12.8623 42.2084 12.1968 42.0979 11.5756 41.8541C10.9544 41.6103 10.3914 41.2387 9.92313 40.7633C9.45482 40.288 9.09164 39.7195 8.85716 39.0947L5.01192 28.8423C4.61158 27.7743 4.60793 26.598 5.00162 25.5274C5.39532 24.4569 6.16021 23.5632 7.15716 23.009L25 13.0947" stroke="#582E90" stroke-width="2" stroke-linecap="round" stroke-linejoin="round"/>
<path d="M40.4758 14.2852C40.4758 12.9703 39.4098 11.9043 38.0948 11.9043C36.7799 11.9043 35.7139 12.9703 35.7139 14.2852C35.7139 15.6002 36.7799 16.6662 38.0948 16.6662C39.4098 16.6662 40.4758 15.6002 40.4758 14.2852Z" fill="#582E90"/>
</svg>
