<svg width="50" height="50" viewBox="0 0 50 50" fill="none" xmlns="http://www.w3.org/2000/svg">
<path fill-rule="evenodd" clip-rule="evenodd" d="M25.0004 46.4284C32.1432 40.4713 34.5242 33.3284 34.5242 24.9999C34.5242 16.6713 32.1432 9.52843 25.0004 3.57129C17.8575 9.52843 15.4766 16.6713 15.4766 24.9999C15.4766 33.3284 17.8575 40.4713 25.0004 46.4284Z" stroke="#582E90" stroke-width="2" stroke-linecap="round" stroke-linejoin="round"/>
<path d="M16.4433 34.1953C15.423 34.7857 14.4848 35.5078 13.6528 36.3429C10.9885 39.0072 9.62898 42.4715 9.57422 46.7358C15.5456 46.4739 18.8171 44.9144 21.3028 42.8144M33.4814 34.1953C34.5008 34.786 35.4381 35.5081 36.2695 36.3429C38.9361 39.0072 40.2933 42.4715 40.3504 46.7358C34.3766 46.4739 31.1076 44.9144 28.6218 42.8144L33.4814 34.1953Z" stroke="#582E90" stroke-width="2" stroke-linecap="round" stroke-linejoin="round"/>
<path d="M25.0002 22.6185C27.6301 22.6185 29.7621 20.4866 29.7621 17.8566C29.7621 15.2267 27.6301 13.0947 25.0002 13.0947C22.3703 13.0947 20.2383 15.2267 20.2383 17.8566C20.2383 20.4866 22.3703 22.6185 25.0002 22.6185Z" stroke="#582E90" stroke-width="2" stroke-linecap="round" stroke-linejoin="round"/>
</svg>
