<svg width="50" height="50" viewBox="0 0 50 50" fill="none" xmlns="http://www.w3.org/2000/svg">
<path d="M10.7141 10.6787H36.9046C37.536 10.6787 38.1417 10.9296 38.5882 11.3761C39.0347 11.8226 39.2855 12.4282 39.2855 13.0597V32.143H8.33315V13.0597C8.33315 12.4282 8.584 11.8226 9.03052 11.3761C9.47703 10.9296 10.0826 10.6787 10.7141 10.6787ZM7.42363 41.6668H40.1951C40.6008 41.6666 40.9997 41.5627 41.3539 41.365C41.7082 41.1674 42.0061 40.8824 42.2193 40.5373C42.4326 40.1922 42.5541 39.7983 42.5723 39.393C42.5906 38.9877 42.505 38.5845 42.3236 38.2216L39.2855 32.143H8.33315L5.29506 38.2216C5.11371 38.5845 5.0281 38.9877 5.04636 39.393C5.06461 39.7983 5.18612 40.1922 5.39935 40.5373C5.61259 40.8824 5.91048 41.1674 6.26475 41.365C6.61902 41.5627 7.01793 41.6666 7.42363 41.6668V41.6668Z" stroke="#582E90" stroke-width="2" stroke-linecap="round" stroke-linejoin="round"/>
</svg>
