<svg width="50" height="50" viewBox="0 0 50 50" fill="none" xmlns="http://www.w3.org/2000/svg">
<path fill-rule="evenodd" clip-rule="evenodd" d="M32.4832 39.8973L24.9974 36.9045H15.4736V20.2378H20.2355L26.9046 7.14258C28.2855 7.14258 29.4641 7.63067 30.4403 8.60686C31.4165 9.58305 31.9046 10.7616 31.9046 12.1426L29.7617 17.8569L39.3593 21.0569C40.4968 21.4357 41.4495 22.2295 42.0272 23.28C42.6049 24.3304 42.7652 25.5601 42.476 26.7235L42.3117 27.2473L38.6141 37.1092C38.1705 38.2916 37.2753 39.2494 36.1255 39.7718C34.9758 40.2942 33.6656 40.3385 32.4832 39.895V39.8973Z" stroke="#582E90" stroke-width="2" stroke-linecap="round" stroke-linejoin="round"/>
<path fill-rule="evenodd" clip-rule="evenodd" d="M8.3331 17.8564H13.095C13.7265 17.8564 14.3321 18.1073 14.7786 18.5538C15.2251 19.0003 15.476 19.6059 15.476 20.2374V39.285C15.476 39.9165 15.2251 40.5221 14.7786 40.9686C14.3321 41.4151 13.7265 41.666 13.095 41.666H8.3331C7.70163 41.666 7.09603 41.4151 6.64951 40.9686C6.203 40.5221 5.95215 39.9165 5.95215 39.285V20.2374C5.95215 19.6059 6.203 19.0003 6.64951 18.5538C7.09603 18.1073 7.70163 17.8564 8.3331 17.8564V17.8564Z" stroke="#582E90" stroke-width="2" stroke-linecap="round" stroke-linejoin="round"/>
</svg>
