<svg width="50" height="50" viewBox="0 0 50 50" fill="none" xmlns="http://www.w3.org/2000/svg">
<path d="M32.1426 29.7617H17.8569M10.7141 5.95215H39.2855C40.5484 5.95215 41.7596 6.45385 42.6527 7.34688C43.5457 8.23991 44.0474 9.45112 44.0474 10.7141V39.2855C44.0474 40.5484 43.5457 41.7596 42.6527 42.6527C41.7596 43.5457 40.5484 44.0474 39.2855 44.0474H10.7141C9.45112 44.0474 8.23991 43.5457 7.34688 42.6527C6.45385 41.7596 5.95215 40.5484 5.95215 39.2855V10.7141C5.95215 9.45112 6.45385 8.23991 7.34688 7.34688C8.23991 6.45385 9.45112 5.95215 10.7141 5.95215V5.95215ZM5.95215 15.476H44.0474H5.95215ZM24.9998 22.6188V37.0379V22.6188Z" stroke="#582E90" stroke-width="2" stroke-linecap="round" stroke-linejoin="round"/>
</svg>
