<svg width="110" height="109" viewBox="0 0 110 109" fill="none" xmlns="http://www.w3.org/2000/svg">
<circle cx="55" cy="54.5" r="54.5" fill="#582E90"/>
<path d="M73.4292 80.0001H32.9982C32.2765 80.0011 31.5617 79.857 30.8947 79.5759C30.2277 79.2948 29.6215 78.8822 29.1109 78.3619C28.6002 77.8415 28.1951 77.2235 27.9187 76.5432C27.6423 75.863 27.5 75.1337 27.5 74.3973V41.8634C27.501 41.1259 27.6445 40.3959 27.9222 39.715C28.2 39.0342 28.6065 38.4159 29.1186 37.8955C29.6307 37.3752 30.2383 36.9629 30.9066 36.6824C31.575 36.4019 32.291 36.2585 33.0137 36.2606C32.7636 35.438 32.5594 34.6017 32.4019 33.7556C31.9528 31.3849 31.4726 28.8956 32.4019 26.2562C32.814 25.1158 33.437 24.0668 34.2372 23.1664C35.1866 22.1565 36.3282 21.3552 37.5919 20.8117C38.8556 20.2681 40.2149 19.9938 41.5862 20.0055C43.9635 20.1914 46.2143 21.1719 47.9904 22.795L48.3234 23.1269C49.5486 24.3046 50.4008 25.8292 50.7705 27.5048C50.9457 28.5376 50.9457 29.5934 50.7705 30.6262C50.5877 32.3427 50.176 34.0256 49.547 35.6284C66.5836 35.6284 79.0281 35.9129 82.0172 36.2527C83.4525 36.3398 84.8169 36.919 85.8892 37.8964C86.5208 38.5347 86.9888 39.3217 87.2521 40.1881C87.4187 40.7274 87.5023 41.2899 87.5 41.8555C87.5 43.4992 87.3683 52.9187 87.1128 65.8391C85.0477 68.0412 82.931 70.2591 80.7627 72.4928C78.295 75.0479 75.8505 77.5503 73.4292 80.0001Z" stroke="#F1ECF9" stroke-width="2" stroke-miterlimit="10"/>
<path d="M41.586 55.0049C39.5724 51.8043 37.8314 48.4335 36.3821 44.9294C33.1761 37.1851 29.823 29.1642 33.3697 24.0277C34.3214 22.7325 35.5652 21.6907 36.9955 20.9905C38.4258 20.2903 40.0005 19.9524 41.586 20.0054C43.2905 20.0688 44.9516 20.5708 46.4151 21.4646C47.8786 22.3585 49.0971 23.6153 49.9572 25.1182C52.0713 29.0694 50.236 34.0084 46.5034 43.7598C44.6604 48.5092 42.887 52.3497 41.586 55.0049Z" stroke="#F1ECF9" stroke-width="2" stroke-miterlimit="10"/>
<path d="M40.9746 33.4473C42.4972 33.4473 43.7314 32.1877 43.7314 30.634C43.7314 29.0803 42.4972 27.8208 40.9746 27.8208C39.4521 27.8208 38.2178 29.0803 38.2178 30.634C38.2178 32.1877 39.4521 33.4473 40.9746 33.4473Z" stroke="#F1ECF9" stroke-width="2" stroke-miterlimit="10"/>
<path d="M73.429 80.0001L72.4146 67.4275L86.9034 65.6257" stroke="#F1ECF9" stroke-width="2" stroke-miterlimit="10"/>
<path d="M44.9238 54.3884H68.1556" stroke="#F1ECF9" stroke-width="2" stroke-miterlimit="10"/>
<path d="M44.9238 63.0811H68.1556" stroke="#F1ECF9" stroke-width="2" stroke-miterlimit="10"/>
</svg>
