<svg width="110" height="109" viewBox="0 0 110 109" fill="none" xmlns="http://www.w3.org/2000/svg">
<circle cx="55" cy="54.5" r="54.5" fill="#582E90"/>
<path d="M38.8114 56.2737C38.2925 55.5739 38.0572 54.7108 38.151 53.8511C38.2449 52.9914 38.6611 52.1963 39.3192 51.6196C39.9774 51.0429 40.8307 50.7255 41.7141 50.7289C42.5975 50.7322 43.4483 51.056 44.1019 51.6377L51.1245 58.2613L70.2056 40.1237C70.8683 39.4879 71.7472 39.1133 72.6743 39.0715C73.6014 39.0298 74.5117 39.3238 75.2313 39.8973C75.9509 40.4709 76.4293 41.2838 76.5751 42.1808C76.721 43.0777 76.524 43.9958 76.0219 44.7597L51.7996 68.1939L38.8114 56.2737Z" stroke="#F1ECF9" stroke-width="2" stroke-miterlimit="10"/>
<path d="M79.3534 32H32.6466C29.8042 32 27.5 34.255 27.5 37.0367V71.9633C27.5 74.745 29.8042 77 32.6466 77H79.3534C82.1958 77 84.5 74.745 84.5 71.9633V37.0367C84.5 34.255 82.1958 32 79.3534 32Z" stroke="#F1ECF9" stroke-width="2" stroke-miterlimit="10"/>
</svg>
