<svg width="72" height="70" viewBox="0 0 72 70" fill="none" xmlns="http://www.w3.org/2000/svg">
<path fill-rule="evenodd" clip-rule="evenodd" d="M59.6671 48.3335V15.0002C59.6671 13.2321 58.9547 11.5364 57.6866 10.2861C56.4185 9.03587 54.6986 8.3335 52.9052 8.3335H25.8576C24.0642 8.3335 22.3443 9.03587 21.0762 10.2861C19.8081 11.5364 19.0957 13.2321 19.0957 15.0002V48.3335C19.0957 50.1016 19.8081 51.7973 21.0762 53.0475C22.3443 54.2978 24.0642 55.0002 25.8576 55.0002H52.9052C54.6986 55.0002 56.4185 54.2978 57.6866 53.0475C58.9547 51.7973 59.6671 50.1016 59.6671 48.3335Z" stroke="#582E90" stroke-width="2" stroke-linecap="round" stroke-linejoin="round"/>
<path d="M18.436 16.4502L11.6606 18.8835C9.97594 19.4885 8.60394 20.7283 7.8463 22.3304C7.08865 23.9325 7.00738 25.7657 7.62036 27.4269L19.1832 58.7502C19.487 59.573 19.9523 60.3287 20.5524 60.9742C21.1525 61.6197 21.8757 62.1424 22.6807 62.5123C23.4857 62.8822 24.3567 63.0921 25.244 63.1301C26.1313 63.168 27.0175 63.0333 27.852 62.7335L46.6771 55.4069M29.2382 25.0002H46.1429M29.2382 31.6669H49.5239M29.2382 38.3335H39.381" stroke="#582E90" stroke-width="2" stroke-linecap="round" stroke-linejoin="round"/>
</svg>
