<svg width="72" height="70" viewBox="0 0 72 70" fill="none" xmlns="http://www.w3.org/2000/svg">
<path d="M52.9049 21.667H29.2383M52.9049 35.0003H29.2383H52.9049ZM52.9049 48.3337H29.2383H52.9049Z" stroke="#582E90" stroke-width="2" stroke-linecap="round" stroke-linejoin="round"/>
<path fill-rule="evenodd" clip-rule="evenodd" d="M19.0924 25.0002C20.7829 25.0002 22.4734 23.3335 22.4734 21.6668C22.4734 20.0002 20.7829 18.3335 19.0924 18.3335C17.4019 18.3335 15.7148 20.0002 15.7148 21.6668C15.7148 23.3335 17.4019 25.0002 19.0924 25.0002ZM19.0924 38.3335C20.7829 38.3335 22.4734 36.6668 22.4734 35.0002C22.4734 33.3335 20.7829 31.6668 19.0924 31.6668C17.4019 31.6668 15.7148 33.3335 15.7148 35.0002C15.7148 36.6668 17.4019 38.3335 19.0924 38.3335ZM19.0924 51.6668C20.7829 51.6668 22.4734 50.0002 22.4734 48.3335C22.4734 46.6668 20.7829 45.0002 19.0924 45.0002C17.4019 45.0002 15.7148 46.6668 15.7148 48.3335C15.7148 50.0002 17.4019 51.6668 19.0924 51.6668Z" fill="#582E90"/>
</svg>
