<svg width="72" height="70" viewBox="0 0 72 70" fill="none" xmlns="http://www.w3.org/2000/svg">
<path d="M8.95312 21.6668H63.0484M15.715 8.3335H56.2865C58.0798 8.3335 59.7997 9.03587 61.0678 10.2861C62.3359 11.5364 63.0484 13.2321 63.0484 15.0002V55.0002C63.0484 56.7683 62.3359 58.464 61.0678 59.7142C59.7997 60.9645 58.0798 61.6668 56.2865 61.6668H15.715C13.9217 61.6668 12.2017 60.9645 10.9336 59.7142C9.66554 58.464 8.95313 56.7683 8.95312 55.0002V15.0002C8.95312 13.2321 9.66554 11.5364 10.9336 10.2861C12.2017 9.03587 13.9217 8.3335 15.715 8.3335V8.3335Z" stroke="#582E90" stroke-width="2" stroke-linecap="round" stroke-linejoin="round"/>
</svg>
