<svg width="72" height="70" viewBox="0 0 72 70" fill="none" xmlns="http://www.w3.org/2000/svg">
<path d="M22.4767 48.3332H32.6196M56.2863 51.6665V28.3332L39.3815 11.6665H22.4767C20.6834 11.6665 18.9635 12.3689 17.6954 13.6191C16.4273 14.8694 15.7148 16.5651 15.7148 18.3332V51.6665C15.7148 53.4346 16.4273 55.1303 17.6954 56.3805C18.9635 57.6308 20.6834 58.3332 22.4767 58.3332H49.5244C51.3177 58.3332 53.0377 57.6308 54.3058 56.3805C55.5739 55.1303 56.2863 53.4346 56.2863 51.6665V51.6665ZM22.4767 34.9998H39.3815H22.4767ZM22.4767 41.6665H46.1434H22.4767Z" stroke="#582E90" stroke-width="2" stroke-linecap="round" stroke-linejoin="round"/>
<path d="M39.3809 11.6665V21.6665C39.3809 23.4346 40.0933 25.1303 41.3614 26.3806C42.6295 27.6308 44.3494 28.3332 46.1428 28.3332H56.2856" stroke="#582E90" stroke-width="2" stroke-linecap="round" stroke-linejoin="round"/>
</svg>
