<svg width="72" height="70" viewBox="0 0 72 70" fill="none" xmlns="http://www.w3.org/2000/svg">
<path d="M8.95313 21.6668H63.1396M15.715 8.3335H56.3777C57.2657 8.3335 58.145 8.50593 58.9654 8.84097C59.7858 9.176 60.5312 9.66706 61.1591 10.2861C61.787 10.9052 62.2851 11.6401 62.6249 12.4489C62.9647 13.2578 63.1396 14.1247 63.1396 15.0002V54.9668C63.1402 56.6488 62.4959 58.2687 61.3359 59.502C60.1759 60.7353 58.586 61.4907 56.8849 61.6168L56.3439 61.6368L15.6812 61.4435C13.8937 61.4347 12.1825 60.7284 10.9217 59.4791C9.66087 58.2298 8.9531 56.5392 8.95313 54.7768V15.0002C8.95313 13.2321 9.66554 11.5364 10.9336 10.2861C12.2017 9.03588 13.9217 8.3335 15.715 8.3335V8.3335Z" stroke="#582E90" stroke-width="2" stroke-linecap="round" stroke-linejoin="round"/>
<path d="M22.4767 38.3337C24.3439 38.3337 25.8576 36.8413 25.8576 35.0003C25.8576 33.1594 24.3439 31.667 22.4767 31.667C20.6094 31.667 19.0957 33.1594 19.0957 35.0003C19.0957 36.8413 20.6094 38.3337 22.4767 38.3337Z" fill="#582E90"/>
</svg>
