<svg width="72" height="70" viewBox="0 0 72 70" fill="none" xmlns="http://www.w3.org/2000/svg">
<path d="M44.4523 56.6668C42.1972 60.0002 39.3809 61.6668 35.9999 61.6668C32.619 61.6668 29.8026 60.0002 27.5476 56.6668M53.1921 51.6668H18.8078C17.82 51.6673 16.8498 51.4092 15.9964 50.9188C15.1429 50.4285 14.4368 49.7235 13.9503 48.876C13.4637 48.0285 13.2141 47.0687 13.227 46.0949C13.2399 45.1212 13.5149 44.1682 14.0237 43.3335C17.3419 37.881 19.0948 31.6421 19.0952 25.2835V21.6668C19.0952 18.1306 20.52 14.7392 23.0562 12.2387C25.5924 9.73825 29.0322 8.3335 32.619 8.3335H39.3809C42.9676 8.3335 46.4075 9.73825 48.9437 12.2387C51.4799 14.7392 52.9047 18.1306 52.9047 21.6668V25.2835C52.9047 31.6402 54.656 37.8835 57.9761 43.3335C58.485 44.1682 58.7599 45.1212 58.7728 46.0949C58.7857 47.0687 58.5362 48.0285 58.0496 48.876C57.5631 49.7235 56.857 50.4285 56.0035 50.9188C55.1501 51.4092 54.1799 51.6673 53.1921 51.6668V51.6668Z" stroke="#582E90" stroke-width="2" stroke-linecap="round" stroke-linejoin="round"/>
</svg>
