<svg width="72" height="70" viewBox="0 0 72 70" fill="none" xmlns="http://www.w3.org/2000/svg">
<path d="M19.0959 25H52.9054C54.6988 25 56.4187 25.7024 57.6868 26.9526C58.9549 28.2029 59.6673 29.8986 59.6673 31.6667V48.3333C59.6673 50.1014 58.9549 51.7971 57.6868 53.0474C56.4187 54.2976 54.6988 55 52.9054 55H19.0959C17.3025 55 15.5826 54.2976 14.3145 53.0474C13.0464 51.7971 12.334 50.1014 12.334 48.3333V31.6667C12.334 29.8986 13.0464 28.2029 14.3145 26.9526C15.5826 25.7024 17.3025 25 19.0959 25V25ZM32.6197 15H39.3816C41.175 15 42.8949 15.7024 44.163 16.9526C45.4311 18.2029 46.1435 19.8986 46.1435 21.6667V25H25.8578V21.6667C25.8578 19.8986 26.5702 18.2029 27.8383 16.9526C29.1064 15.7024 30.8263 15 32.6197 15Z" stroke="#582E90" stroke-width="2" stroke-linecap="round" stroke-linejoin="round"/>
</svg>
